<svg width="33" height="33" viewBox="0 0 33 33" fill="none" xmlns="http://www.w3.org/2000/svg">
<path d="M15.5 5.5V2.5C15.5 2.23478 15.6054 1.98043 15.7929 1.79289C15.9804 1.60536 16.2348 1.5 16.5 1.5C16.7652 1.5 17.0196 1.60536 17.2071 1.79289C17.3946 1.98043 17.5 2.23478 17.5 2.5V5.5C17.5 5.76522 17.3946 6.01957 17.2071 6.20711C17.0196 6.39464 16.7652 6.5 16.5 6.5C16.2348 6.5 15.9804 6.39464 15.7929 6.20711C15.6054 6.01957 15.5 5.76522 15.5 5.5ZM24.5 16.5C24.5 18.0823 24.0308 19.629 23.1518 20.9446C22.2727 22.2602 21.0233 23.2855 19.5615 23.891C18.0997 24.4965 16.4911 24.655 14.9393 24.3463C13.3874 24.0376 11.962 23.2757 10.8431 22.1569C9.72433 21.038 8.9624 19.6126 8.65372 18.0607C8.34504 16.5089 8.50346 14.9003 9.10896 13.4385C9.71447 11.9767 10.7398 10.7273 12.0554 9.84824C13.371 8.96919 14.9177 8.5 16.5 8.5C18.621 8.50232 20.6545 9.34591 22.1543 10.8457C23.6541 12.3455 24.4977 14.379 24.5 16.5ZM22.5 16.5C22.5 15.3133 22.1481 14.1533 21.4888 13.1666C20.8295 12.1799 19.8925 11.4108 18.7961 10.9567C17.6997 10.5026 16.4933 10.3838 15.3295 10.6153C14.1656 10.8468 13.0965 11.4182 12.2574 12.2574C11.4182 13.0965 10.8468 14.1656 10.6153 15.3295C10.3838 16.4933 10.5026 17.6997 10.9567 18.7961C11.4108 19.8925 12.1799 20.8295 13.1666 21.4888C14.1533 22.1481 15.3133 22.5 16.5 22.5C18.0908 22.4983 19.616 21.8657 20.7408 20.7408C21.8657 19.616 22.4983 18.0908 22.5 16.5ZM7.7925 9.2075C7.98014 9.39514 8.23464 9.50056 8.5 9.50056C8.76536 9.50056 9.01986 9.39514 9.2075 9.2075C9.39514 9.01986 9.50056 8.76536 9.50056 8.5C9.50056 8.23464 9.39514 7.98014 9.2075 7.7925L7.2075 5.7925C7.01986 5.60486 6.76536 5.49944 6.5 5.49944C6.23464 5.49944 5.98014 5.60486 5.7925 5.7925C5.60486 5.98014 5.49944 6.23464 5.49944 6.5C5.49944 6.76536 5.60486 7.01986 5.7925 7.2075L7.7925 9.2075ZM7.7925 23.7925L5.7925 25.7925C5.60486 25.9801 5.49944 26.2346 5.49944 26.5C5.49944 26.7654 5.60486 27.0199 5.7925 27.2075C5.98014 27.3951 6.23464 27.5006 6.5 27.5006C6.76536 27.5006 7.01986 27.3951 7.2075 27.2075L9.2075 25.2075C9.30041 25.1146 9.37411 25.0043 9.42439 24.8829C9.47468 24.7615 9.50056 24.6314 9.50056 24.5C9.50056 24.3686 9.47468 24.2385 9.42439 24.1171C9.37411 23.9957 9.30041 23.8854 9.2075 23.7925C9.11459 23.6996 9.00429 23.6259 8.8829 23.5756C8.7615 23.5253 8.63139 23.4994 8.5 23.4994C8.36861 23.4994 8.2385 23.5253 8.1171 23.5756C7.99571 23.6259 7.88541 23.6996 7.7925 23.7925ZM24.5 9.5C24.6314 9.5001 24.7615 9.47432 24.8829 9.42414C25.0042 9.37395 25.1146 9.30033 25.2075 9.2075L27.2075 7.2075C27.3951 7.01986 27.5006 6.76536 27.5006 6.5C27.5006 6.23464 27.3951 5.98014 27.2075 5.7925C27.0199 5.60486 26.7654 5.49944 26.5 5.49944C26.2346 5.49944 25.9801 5.60486 25.7925 5.7925L23.7925 7.7925C23.6525 7.93236 23.5571 8.11061 23.5185 8.30469C23.4798 8.49878 23.4996 8.69997 23.5754 8.88279C23.6511 9.06561 23.7794 9.22185 23.944 9.33172C24.1086 9.44159 24.3021 9.50016 24.5 9.5ZM25.2075 23.7925C25.0199 23.6049 24.7654 23.4994 24.5 23.4994C24.2346 23.4994 23.9801 23.6049 23.7925 23.7925C23.6049 23.9801 23.4994 24.2346 23.4994 24.5C23.4994 24.7654 23.6049 25.0199 23.7925 25.2075L25.7925 27.2075C25.8854 27.3004 25.9957 27.3741 26.1171 27.4244C26.2385 27.4747 26.3686 27.5006 26.5 27.5006C26.6314 27.5006 26.7615 27.4747 26.8829 27.4244C27.0043 27.3741 27.1146 27.3004 27.2075 27.2075C27.3004 27.1146 27.3741 27.0043 27.4244 26.8829C27.4747 26.7615 27.5006 26.6314 27.5006 26.5C27.5006 26.3686 27.4747 26.2385 27.4244 26.1171C27.3741 25.9957 27.3004 25.8854 27.2075 25.7925L25.2075 23.7925ZM6.5 16.5C6.5 16.2348 6.39464 15.9804 6.20711 15.7929C6.01957 15.6054 5.76522 15.5 5.5 15.5H2.5C2.23478 15.5 1.98043 15.6054 1.79289 15.7929C1.60536 15.9804 1.5 16.2348 1.5 16.5C1.5 16.7652 1.60536 17.0196 1.79289 17.2071C1.98043 17.3946 2.23478 17.5 2.5 17.5H5.5C5.76522 17.5 6.01957 17.3946 6.20711 17.2071C6.39464 17.0196 6.5 16.7652 6.5 16.5ZM16.5 26.5C16.2348 26.5 15.9804 26.6054 15.7929 26.7929C15.6054 26.9804 15.5 27.2348 15.5 27.5V30.5C15.5 30.7652 15.6054 31.0196 15.7929 31.2071C15.9804 31.3946 16.2348 31.5 16.5 31.5C16.7652 31.5 17.0196 31.3946 17.2071 31.2071C17.3946 31.0196 17.5 30.7652 17.5 30.5V27.5C17.5 27.2348 17.3946 26.9804 17.2071 26.7929C17.0196 26.6054 16.7652 26.5 16.5 26.5ZM30.5 15.5H27.5C27.2348 15.5 26.9804 15.6054 26.7929 15.7929C26.6054 15.9804 26.5 16.2348 26.5 16.5C26.5 16.7652 26.6054 17.0196 26.7929 17.2071C26.9804 17.3946 27.2348 17.5 27.5 17.5H30.5C30.7652 17.5 31.0196 17.3946 31.2071 17.2071C31.3946 17.0196 31.5 16.7652 31.5 16.5C31.5 16.2348 31.3946 15.9804 31.2071 15.7929C31.0196 15.6054 30.7652 15.5 30.5 15.5Z" fill="#5E5E5E"/>
</svg>
